<svg xmlns="http://www.w3.org/2000/svg" id="Layer_1" data-name="Layer 1" viewBox="0 0 531.31 108"><defs><style>.cls-1{fill:#006bd3;}</style></defs><title>Artboard 1</title><circle class="cls-1" cx="64.5" cy="68.05" r="7.4"></circle><circle class="cls-1" cx="64.5" cy="38.47" r="8.14"></circle><circle class="cls-1" cx="64.5" cy="8.88" r="8.88"></circle><circle class="cls-1" cx="94.09" cy="82.85" r="8.88"></circle><circle class="cls-1" cx="94.09" cy="53.26" r="9.76"></circle><circle class="cls-1" cx="94.09" cy="23.67" r="10.65"></circle><circle class="cls-1" cx="34.92" cy="82.85" r="5.92"></circle><circle class="cls-1" cx="34.92" cy="53.26" r="6.51"></circle><circle class="cls-1" cx="34.92" cy="23.67" r="7.1"></circle><circle class="cls-1" cx="5.33" cy="97.64" r="4.44"></circle><circle class="cls-1" cx="5.33" cy="68.05" r="4.88"></circle><circle class="cls-1" cx="5.33" cy="38.47" r="5.33"></circle><circle class="cls-1" cx="123.68" cy="97.64" r="10.36"></circle><circle class="cls-1" cx="123.68" cy="68.05" r="11.39"></circle><circle class="cls-1" cx="123.68" cy="38.47" r="12.43"></circle><path class="cls-1" d="M173.74,93.33,181.67,105h6.72L179.8,92.87c4.81-1.37,6.88-5.42,6.88-9.68,0-5.14-3-10.32-10.23-10.32H163.84V105h5.7V93.32Zm-4.2-4.82V78H176c3.13,0,4.95,2.38,4.95,5.32s-1.68,5.23-5.7,5.23Z"></path><path class="cls-1" d="M184.76,36.16h-9.2V63.24h-5.69V36.16h-9.2V31.07h24.09Z"></path><path class="cls-1" d="M211.84,96H195c.6,3,2.94,4.58,6.16,4.58a7.28,7.28,0,0,0,5.93-2.71l3.59,2.75c-2,3.18-5.83,4.86-9.8,4.86-6.54,0-11.49-4.58-11.49-11.39,0-7,5.23-11.35,11.44-11.35S212,87.11,212,93.93A18.9,18.9,0,0,1,211.84,96Zm-5.28-3.78c-.32-3-2.61-4.72-5.65-4.72s-5.27,1.4-5.92,4.72Z"></path><path class="cls-1" d="M181.17,52.27c0-6.91,5.37-11.3,11.58-11.3s11.63,4.39,11.63,11.3a11.61,11.61,0,0,1-23.21,0Zm17.75,0a6.14,6.14,0,1,0-6.17,6.39A6.06,6.06,0,0,0,198.92,52.27Z"></path><path class="cls-1" d="M238.6,83.24V105h-5.41V102.1c-1.5,2.33-4.58,3.41-7.24,3.41-5.74,0-10.74-4.44-10.74-11.39s4.95-11.35,10.69-11.35c2.76,0,5.79,1.07,7.29,3.36V83.24Zm-5.51,10.83a6.26,6.26,0,0,0-6.3-6.26,6.09,6.09,0,0,0-6.12,6.26,6.21,6.21,0,1,0,12.42,0Z"></path><path class="cls-1" d="M223.21,41.21a9.5,9.5,0,0,0-2.48-.24c-2.71,0-5.09,1.49-6.26,5.13V41.44h-5.41v21.8h5.46V55.63c0-6.12,2-9.57,5.51-9.57a11.2,11.2,0,0,1,3.18.41Z"></path><path class="cls-1" d="M244.21,71.56h5.41V105h-5.41Z"></path><path class="cls-1" d="M224.9,52.27c0-6.91,5.37-11.3,11.58-11.3s11.62,4.39,11.62,11.3a11.6,11.6,0,0,1-23.2,0Zm17.74,0a6.14,6.14,0,1,0-6.16,6.39A6.06,6.06,0,0,0,242.64,52.27Z"></path><path class="cls-1" d="M288.36,100V105H268.14V72.87H287.9V78H273.79v8h12.33v5.18H273.79V100Z"></path><path class="cls-1" d="M273.56,51V63.24h-5.41V51.52c0-3.45-2.11-5.23-4.53-5.23s-5.56,1.36-5.56,5.56V63.24h-5.42V41.44h5.42v3.45c1.12-2.71,4.53-3.92,6.77-3.92C270.43,41,273.56,44.66,273.56,51Z"></path><path class="cls-1" d="M291.17,98.22h5.09c0,1.5,1.31,2.9,3.6,2.9s3.55-1,3.55-2.38c0-1.22-.94-1.78-2.57-2.15l-2.9-.75c-4.9-1.3-6.16-3.92-6.16-6.67,0-3.41,3.36-6.4,8.13-6.4,3.87,0,8.26,1.91,8.21,6.82h-5.18a2.63,2.63,0,0,0-2.89-2.48c-1.68,0-2.85.94-2.85,2.29,0,1.12,1.07,1.77,2.33,2l3.5.94c4.91,1.26,5.79,4.34,5.79,6.35,0,4.43-4.43,6.77-8.87,6.77S291.27,102.89,291.17,98.22Z"></path><path class="cls-1" d="M290.71,45.78h-4.63V63.24h-5.41V45.78h-3.92V41.44h3.92v-8h5.41v8h4.63Z"></path><path class="cls-1" d="M325,87.58h-4.63V105H315V87.58h-3.93V83.24H315v-8h5.41v8H325Z"></path><path class="cls-1" d="M350.31,83.24V105h-5.42V102.1c-1.5,2.33-4.58,3.41-7.24,3.41-5.74,0-10.74-4.44-10.74-11.39s4.95-11.35,10.7-11.35c2.75,0,5.78,1.07,7.28,3.36V83.24ZM344.8,94.07a6.27,6.27,0,0,0-6.31-6.26,6.08,6.08,0,0,0-6.11,6.26,6.16,6.16,0,0,0,6.11,6.35A6.23,6.23,0,0,0,344.8,94.07Z"></path><path class="cls-1" d="M368,87.58h-4.62V105h-5.41V87.58H354V83.24h3.93v-8h5.41v8H368Z"></path><path class="cls-1" d="M392.25,96H375.4c.6,3,2.94,4.58,6.16,4.58a7.28,7.28,0,0,0,5.93-2.71l3.6,2.75c-2,3.18-5.84,4.86-9.81,4.86-6.54,0-11.49-4.58-11.49-11.39,0-7,5.23-11.35,11.44-11.35s11.16,4.34,11.16,11.16A16.76,16.76,0,0,1,392.25,96ZM387,92.25c-.33-3-2.62-4.72-5.65-4.72s-5.28,1.4-5.93,4.72Z"></path><path class="cls-1" d="M292.54,52.27c0-6.91,5.37-11.3,11.58-11.3s11.62,4.39,11.62,11.3a11.6,11.6,0,0,1-23.2,0Zm17.74,0a6.14,6.14,0,1,0-6.16,6.39A6.06,6.06,0,0,0,310.28,52.27Z"></path><path class="cls-1" d="M433.52,95.89c0,4.53-3.22,9.15-9.9,9.15H410.13V72.87h12.51c5.61,0,9.15,3.36,9.15,8.27,0,2.52-.93,5.55-4.2,6.72C431.51,88.65,433.52,92.34,433.52,95.89ZM415.83,78v7.89h6.58c2.38,0,3.69-1.59,3.69-3.92s-1.22-4-3.69-4Zm11.95,17.37a4.54,4.54,0,0,0-4.9-4.67h-7.05V100h6.91C426.05,100,427.78,97.76,427.78,95.33Z"></path><path class="cls-1" d="M436.83,94.07c0-6.91,5.37-11.3,11.58-11.3S460,87.16,460,94.07a11.61,11.61,0,0,1-23.21,0Zm17.75,0a6.15,6.15,0,1,0-6.17,6.4A6.14,6.14,0,0,0,454.58,94.07Z"></path><path class="cls-1" d="M486.7,83.24V105h-5.42V102.1c-1.49,2.33-4.58,3.41-7.24,3.41-5.74,0-10.74-4.44-10.74-11.39s4.95-11.35,10.7-11.35c2.75,0,5.79,1.07,7.28,3.36V83.24Zm-5.51,10.83a6.27,6.27,0,0,0-6.31-6.26,6.08,6.08,0,0,0-6.11,6.26,6.16,6.16,0,0,0,6.11,6.35A6.23,6.23,0,0,0,481.19,94.07Z"></path><path class="cls-1" d="M531.31,71.56V105h-5.42V102.1c-1.49,2.33-4.57,3.41-7.23,3.41-5.75,0-10.74-4.44-10.74-11.39s4.95-11.35,10.69-11.35c2.75,0,5.79,1.07,7.28,3.36V71.56ZM525.8,94.07a6.26,6.26,0,0,0-6.3-6.26,6.08,6.08,0,0,0-6.12,6.26,6.16,6.16,0,0,0,6.12,6.35A6.23,6.23,0,0,0,525.8,94.07Z"></path><path class="cls-1" d="M506.22,83a9.42,9.42,0,0,0-2.47-.24c-2.71,0-5.09,1.49-6.26,5.14V83.24h-5.41V105h5.46V97.43c0-6.12,2-9.57,5.51-9.57a11.06,11.06,0,0,1,3.17.41Z"></path><path class="cls-1" d="M343.65,51.53l7.93,11.71h6.73l-8.59-12.17c4.8-1.37,6.87-5.42,6.87-9.68,0-5.14-3-10.32-10.23-10.32h-12.6V63.24h5.69V51.52Zm-4.2-4.82V36.16h6.49c3.13,0,4.95,2.38,4.95,5.32s-1.68,5.23-5.69,5.23Z"></path><path class="cls-1" d="M343.65,51.53l7.93,11.71h6.73l-8.59-12.17c4.8-1.37,6.87-5.42,6.87-9.68,0-5.14-3-10.32-10.23-10.32h-12.6V63.24h5.69V51.52Zm-4.2-4.82V36.16h6.49c3.13,0,4.95,2.38,4.95,5.32s-1.68,5.23-5.69,5.23Z"></path><path class="cls-1" d="M381.75,54.23H364.9c.6,3,2.94,4.57,6.16,4.57A7.27,7.27,0,0,0,377,56.1l3.6,2.75c-2,3.17-5.84,4.86-9.81,4.86-6.54,0-11.49-4.58-11.49-11.4S364.52,41,370.73,41s11.16,4.34,11.16,11.16A17,17,0,0,1,381.75,54.23Zm-5.27-3.78c-.33-3-2.62-4.72-5.65-4.72s-5.28,1.4-5.93,4.72Z"></path><path class="cls-1" d="M408.49,41.44V60.16c0,9.8-4.76,14-12.23,14a11.29,11.29,0,0,1-10.32-6.4l4.48-2a6.67,6.67,0,0,0,5.84,3.55c4.2,0,6.82-2.43,6.82-8.64v-.33c-1.54,2.25-4.58,3.37-7.24,3.37-5.74,0-10.74-4.44-10.74-11.4S390.05,41,395.79,41c2.81,0,5.75,1.07,7.29,3.31V41.44ZM403,52.27a6.26,6.26,0,0,0-6.3-6.26,6.09,6.09,0,0,0-6.12,6.26,6.21,6.21,0,1,0,12.42,0Z"></path><path class="cls-1" d="M413.15,33.73a3.41,3.41,0,0,1,3.55-3.31,3.32,3.32,0,1,1,0,6.63A3.45,3.45,0,0,1,413.15,33.73Zm.84,7.71h5.42v21.8H414Z"></path><path class="cls-1" d="M424,52.27c0-6.91,5.37-11.3,11.58-11.3s11.62,4.39,11.62,11.3a11.6,11.6,0,0,1-23.2,0Zm17.74,0a6.14,6.14,0,1,0-6.16,6.39A6.06,6.06,0,0,0,441.7,52.27Z"></path><path class="cls-1" d="M472.25,51V63.24h-5.42V51.52c0-3.46-2.1-5.23-4.53-5.23s-5.55,1.35-5.55,5.56V63.24h-5.42V41.44h5.42v3.45c1.12-2.71,4.53-3.92,6.77-3.92C469.12,41,472.25,44.66,472.25,51Z"></path><path class="cls-1" d="M499.33,41.44v21.8h-5.42V60.3c-1.49,2.33-4.57,3.41-7.23,3.41-5.75,0-10.74-4.44-10.74-11.4S480.89,41,486.63,41c2.75,0,5.79,1.07,7.28,3.36V41.44Zm-5.51,10.83a6.26,6.26,0,0,0-6.3-6.26,6.08,6.08,0,0,0-6.12,6.26,6.16,6.16,0,0,0,6.12,6.35A6.23,6.23,0,0,0,493.82,52.27Z"></path><path class="cls-1" d="M504.41,29.76h5.41V63.24h-5.41Z"></path></svg>