<svg xmlns="http://www.w3.org/2000/svg" width="300" height="70.415" viewBox="0 0 300 70.415"><path d="M63.061,16.94A12.123,12.123,0,0,0,53.575,12.6c-5.142,0-8.521,2.376-8.521,5.978,0,9.319,21.293,5.087,21.293,18.007,0,6.219-4.92,10.285-12.754,10.285-6.219,0-10.73-2.488-13.274-5.922l2.432-2.265A13.576,13.576,0,0,0,53.594,43.71C59.4,43.71,62.8,41,62.8,36.934c0-10.4-21.238-5.866-21.238-18.23,0-5.532,4.864-9.264,12.141-9.264,5.365,0,9.821,2.376,11.807,5.2Z" transform="translate(34.531 8.085)" fill="#430098"></path><path d="M54.64,17.662h4.233V11.22H62.2v6.442h9.394l-3.4,2.989H62.251V37.414c0,3.156,1.467,4.808,4.233,4.808a5.672,5.672,0,0,0,3.843-1.467L71.961,43.3a8.581,8.581,0,0,1-5.755,2.042c-4.678,0-7.333-2.655-7.333-7.741V20.651H54.64Z" transform="translate(46.796 9.609)" fill="#430098"></path><path d="M63.28,28.469c0-7.8,5.532-14.109,13.162-14.109,7.444,0,12.976,6.145,12.976,13.608a10.365,10.365,0,0,1-.111,1.411H66.659c.39,5.755,4.623,10.285,10.619,10.285a12.006,12.006,0,0,0,8.354-3.212l1.8,2.321a14.352,14.352,0,0,1-10.285,3.9C69.035,42.634,63.28,36.322,63.28,28.469Zm3.379-1.522H85.966c-.743-6.033-4.455-9.653-9.542-9.653C71.133,17.293,67.29,21.47,66.659,26.947Z" transform="translate(54.195 12.298)" fill="#430098"></path><path d="M79.18,8.34h3.379V47.177H79.18Z" transform="translate(67.813 7.143)" fill="#430098"></path><path d="M83.6,8.34h3.379V47.177H83.6Z" transform="translate(71.598 7.143)" fill="#430098"></path><path d="M111.161,36.6A12.085,12.085,0,0,1,100.6,42.634c-7.5,0-13.218-6.163-13.218-14.165,0-7.908,5.588-14.109,13.218-14.109a12.05,12.05,0,0,1,10.563,5.922V14.973h3.323V42.021h-3.323Zm0-8.187c0-6.108-4.233-10.953-10.155-10.953-5.978,0-10.285,4.864-10.285,10.953s4.288,11.12,10.285,11.12C106.928,39.533,111.161,34.521,111.161,28.413Z" transform="translate(74.835 12.298)" fill="#430098"></path><path d="M107.459,42.021H104.08V14.973h3.379V18.7a7.614,7.614,0,0,1,6.887-4.344,6.854,6.854,0,0,1,4.01,1.077l-1.411,3.1a6.312,6.312,0,0,0-3.453-1.021c-3.731,0-6.033,3.212-6.033,8.521Z" transform="translate(89.138 12.298)" fill="#430098"></path><path d="M119.209,15.366V45.96H115.83V9.76h3.9l14.406,23.15,14.35-23.15h3.453v36.2h-3.4V15.366L133.912,38.628Z" transform="translate(99.201 8.359)" fill="#00bcda"></path><path d="M137.2,9.76h3.379V42.786h15l-3.509,3.156H137.2Z" transform="translate(117.503 8.359)" fill="#00bcda"></path><path d="M170.321,16.94a12.123,12.123,0,0,0-9.486-4.344c-5.142,0-8.521,2.376-8.521,5.978,0,9.319,21.293,5.087,21.293,18.007,0,6.219-4.92,10.285-12.754,10.285-6.219,0-10.73-2.488-13.273-5.922l2.432-2.265a13.576,13.576,0,0,0,10.842,5.031c5.811,0,9.208-2.71,9.208-6.776,0-10.4-21.238-5.866-21.238-18.23,0-5.532,4.864-9.264,12.141-9.264,5.365,0,9.821,2.376,11.807,5.2Z" transform="translate(126.393 8.085)" fill="#00bcda"></path><path d="M27.551,12.847,21.685,0,15.8,12.847l5.885,14.22Z" transform="translate(13.532)" fill="#00bcda"></path><path d="M15.8,37.57l5.885,12.847L27.551,37.57,21.685,23.35Z" transform="translate(13.532 19.998)" fill="#00bcda"></path><path d="M37.57,27.551l12.847-5.866L37.57,15.8,23.35,21.685Z" transform="translate(19.998 13.532)" fill="#00bcda"></path><path d="M12.847,15.8,0,21.685l12.847,5.866,14.22-5.866Z" transform="translate(0 13.532)" fill="#00bcda"></path><path d="M36.272,18.8,41.21,5.55,27.955,10.488,22.07,24.69Z" transform="translate(18.902 4.753)" fill="#00bcda"></path><path d="M10.488,27.955,5.55,41.21,18.8,36.272l5.885-14.2Z" transform="translate(4.753 18.902)" fill="#00bcda"></path><path d="M27.955,36.272,41.21,41.21,36.272,27.955,22.07,22.07Z" transform="translate(18.902 18.902)" fill="#00bcda"></path><path d="M18.8,10.488,5.55,5.55,10.488,18.8l14.2,5.885Z" transform="translate(4.753 4.753)" fill="#00bcda"></path><path d="M22.29,11.075,11.95,1.44l-.52,14.127,1.058-.427L19.654,28.21l-.873-10.248,6.646,7.871L21.251,11.5Z" transform="translate(9.789 1.233)" fill="#430098"></path><path d="M22.089,39.2l10.34,9.635.52-14.127-1.058.427L24.725,22.07,25.6,32.318,18.97,24.446l4.158,14.332Z" transform="translate(16.247 18.902)" fill="#430098"></path><path d="M39.2,22.29,48.84,11.95l-14.127-.52.427,1.058L22.07,19.654l10.248-.873-7.871,6.646,14.332-4.177Z" transform="translate(18.902 9.789)" fill="#430098"></path><path d="M11.075,22.089,1.44,32.429l14.127.52-.427-1.058L28.21,24.725,17.962,25.6l7.871-6.627L11.5,23.128Z" transform="translate(1.233 16.247)" fill="#430098"></path><path d="M32.949,15.567,32.429,1.44l-10.34,9.635,1.04.427L18.97,25.834,25.6,17.962,24.725,28.21,31.891,15.14Z" transform="translate(16.247 1.233)" fill="#430098"></path><path d="M11.43,34.712l.52,14.127L22.29,39.2l-1.04-.427,4.177-14.332-6.646,7.871.873-10.248L12.488,35.139Z" transform="translate(9.789 18.902)" fill="#430098"></path><path d="M34.712,32.949l14.127-.52L39.2,22.089l-.427,1.04L24.446,18.97,32.318,25.6,22.07,24.725l13.069,7.166Z" transform="translate(18.902 16.247)" fill="#430098"></path><path d="M15.567,11.43,1.44,11.95l9.635,10.34.427-1.04,14.332,4.177-7.871-6.646,10.248.873L15.14,12.488Z" transform="translate(1.233 9.789)" fill="#430098"></path></svg>